<svg xmlns="http://www.w3.org/2000/svg" viewBox="0 0 64 64" id="mountain"><path d="M5,55H2a1,1,0,0,1-.86-1.51L13.62,32.7a3.94,3.94,0,0,1,6.76,0l5.88,9.78a1,1,0,0,1,0,1,1,1,0,0,1-.86.52A3.49,3.49,0,0,0,22,47.33a1,1,0,0,1-.55.84,1,1,0,0,1-1-.06l-.12-.06a1.46,1.46,0,0,0-.46,0,1.54,1.54,0,0,1-.3.09l-.14.07h0l-.06,0a.81.81,0,0,0-.16.16.77.77,0,0,0-.1.15,1.28,1.28,0,0,0-.08.2,1,1,0,0,1-1.73.36,3,3,0,0,0-5,.57,1,1,0,0,1-1.19.5A4.11,4.11,0,0,0,10,50a4,4,0,0,0-4,4A1,1,0,0,1,5,55ZM3.77,53h.31a6.59,6.59,0,0,1,.23-.9ZM17,32.78a1.94,1.94,0,0,0-1.66.94L5.64,49.89A6,6,0,0,1,11,48.07a5,5,0,0,1,6.91-1.17,2,2,0,0,1,.27-.24,1.84,1.84,0,0,1,.29-.21l.39-.2.15,0a1.9,1.9,0,0,1,.51-.15,2.62,2.62,0,0,1,.74,0,5.54,5.54,0,0,1,3.58-3.74l-5.13-8.55A1.94,1.94,0,0,0,17,32.78Z" fill="#16cbe7"/><path d="M62 55H50a1 1 0 0 1-1-.8A1.5 1.5 0 0 0 47.5 53a1.66 1.66 0 0 0-.32 0 1 1 0 0 1-.82-.21 1 1 0 0 1-.36-.77 1 1 0 0 0-1-1 .78.78 0 0 0-.46.12 1 1 0 0 1-1 .05 1 1 0 0 1-.54-.85 4.49 4.49 0 0 0-8.38-2.07 1 1 0 0 1-.91.51 1 1 0 0 1-.87-.58A2 2 0 0 0 31 47a1.1 1.1 0 0 0-.26 0l-.36-.94h0l.2 1-.1 0a.88.88 0 0 1-.15 0l-.19.07a1 1 0 0 1-1.28-.67A3.52 3.52 0 0 0 25.5 44a1.18 1.18 0 0 1-1-.48l-4.6-7.65a1 1 0 0 1 0-1l8.46-14.1A5.64 5.64 0 0 1 35 18.29a5.84 5.84 0 0 1 3.11 2.57l2.79 4.66a2 2 0 0 0 2.17.9 4.56 4.56 0 0 1 2.68.28 4.62 4.62 0 0 1 2.15 1.91L62.86 53.49A1 1 0 0 1 62 55zM50.66 53h9.57l-14-23.36A2.64 2.64 0 0 0 45 28.55a2.5 2.5 0 0 0-1.52-.17 4 4 0 0 1-4.28-1.84l-2.79-4.65a3.82 3.82 0 0 0-2-1.7 3.64 3.64 0 0 0-4.3 1.57L22 35.35 26 42a5.56 5.56 0 0 1 4.44 3A3.45 3.45 0 0 1 31 45a4.05 4.05 0 0 1 2.74 1.08A6.5 6.5 0 0 1 44.83 49a3 3 0 0 1 3 2A3.48 3.48 0 0 1 50.66 53zM21 25H17a1 1 0 0 1-1-1.19 1.55 1.55 0 0 0 0-.31A1.51 1.51 0 0 0 14.78 22a1 1 0 0 1-.8-.85 2.5 2.5 0 0 0-5 .17 1 1 0 0 1-1.51.8 1 1 0 0 0-1.37 1.35A1 1 0 0 1 5.27 25H2a1 1 0 0 1 0-2H4a3 3 0 0 1 3-3h.25a4.5 4.5 0 0 1 8.57.25A3.52 3.52 0 0 1 18 23h3a1 1 0 0 1 0 2zM62 17H58a1 1 0 0 1-1-1.19 1.55 1.55 0 0 0 0-.31A1.51 1.51 0 0 0 55.78 14a1 1 0 0 1-.8-.85 2.5 2.5 0 0 0-5 .17 1 1 0 0 1-1.51.8 1 1 0 0 0-1.37 1.35A1 1 0 0 1 46.27 17H43a1 1 0 0 1 0-2h2a3 3 0 0 1 3-3h.25a4.5 4.5 0 0 1 8.57.25A3.52 3.52 0 0 1 59 15h3a1 1 0 0 1 0 2zM22 19a5 5 0 1 1 5-5A5 5 0 0 1 22 19zm0-8a3 3 0 1 0 3 3A3 3 0 0 0 22 11zM19 48.3a1 1 0 0 1-.55-1.83 2.05 2.05 0 0 1 .41-.22 1 1 0 1 1 .82 1.82l-.13.06A.94.94 0 0 1 19 48.3z" fill="#16cbe7"/><path d="M22 50a1 1 0 0 1-1-1 1 1 0 0 0-.46-.84 1 1 0 1 1 1.08-1.68A3 3 0 0 1 23 49 1 1 0 0 1 22 50zM28 50a1 1 0 0 1-1-1 4 4 0 0 1 2.25-3.6 1 1 0 0 1 .88 1.8A2 2 0 0 0 29 49 1 1 0 0 1 28 50zM14 42a1 1 0 0 1-.51-.14L10.4 40a1 1 0 0 1 1-1.72L14 39.82l2.48-1.65a1 1 0 0 1 .87-.12L20 39l2.67-.9A1 1 0 0 1 24 39a1 1 0 0 1-.76 1l-2.92 1a1 1 0 0 1-.64 0l-2.53-.85-2.6 1.73A1 1 0 0 1 14 42zM41 35h0a1 1 0 0 1-.73-.36l-4.56-5.48L33.32 30a1 1 0 0 1-.87-.12L30 28.18l-6 3.61a1 1 0 1 1-1-1.72l6.55-3.93a1 1 0 0 1 1.06 0l2.6 1.73 2.53-.85a1 1 0 0 1 1.09.31l4.3 5.16 2.22-2.23A1 1 0 0 1 44.2 30L49 31a1 1 0 1 1-.39 2l-4.24-.85-2.62 2.63A1 1 0 0 1 41 35z" fill="#16cbe7"/><path d="M50,55H5a1,1,0,0,1-1-1,6,6,0,0,1,7-5.93,5,5,0,0,1,6.91-1.17,2,2,0,0,1,.27-.24,1.84,1.84,0,0,1,.29-.21l.39-.2.15,0a1.9,1.9,0,0,1,.51-.15,2.62,2.62,0,0,1,.74,0,5.51,5.51,0,0,1,5.17-4h.12a5.52,5.52,0,0,1,4.92,3A3.45,3.45,0,0,1,31,45a4.05,4.05,0,0,1,2.74,1.08A6.5,6.5,0,0,1,44.83,49a3,3,0,0,1,3,2,3.5,3.5,0,0,1,3.1,2.78,1,1,0,0,1-.21.83A1,1,0,0,1,50,55ZM47.5,53h0ZM6.13,53H46.69a1.06,1.06,0,0,1-.33-.18,1,1,0,0,1-.36-.77,1,1,0,0,0-1-1,.78.78,0,0,0-.46.12,1,1,0,0,1-1,.05,1,1,0,0,1-.54-.85,4.49,4.49,0,0,0-8.38-2.07,1,1,0,0,1-.91.51,1,1,0,0,1-.87-.58A2,2,0,0,0,31,47a1.1,1.1,0,0,0-.26,0l-.36-.94h0l.2,1-.1,0a.88.88,0,0,1-.15,0l-.19.07a1,1,0,0,1-1.28-.67,3.5,3.5,0,0,0-6.85.81,1,1,0,0,1-.55.84,1,1,0,0,1-1-.06l-.12-.06a1.46,1.46,0,0,0-.46,0,1.54,1.54,0,0,1-.3.09l-.14.07h0l-.06,0a.81.81,0,0,0-.16.16.77.77,0,0,0-.1.15,1.28,1.28,0,0,0-.08.2,1,1,0,0,1-1.73.36,3,3,0,0,0-5,.57,1,1,0,0,1-1.19.5A4.11,4.11,0,0,0,10,50,4,4,0,0,0,6.13,53Z" fill="#16cbe7"/></svg>